<svg width="121" height="14" viewBox="0 0 121 14" fill="none" xmlns="http://www.w3.org/2000/svg">
<path d="M4.4 11.18C7.31 11.18 8.735 9.515 8.735 7.04V0.994999H6.95V6.995C6.95 8.585 6.065 9.62 4.4 9.62C2.735 9.62 1.85 8.585 1.85 6.995V0.994999H0.065V7.04C0.065 9.515 1.505 11.18 4.4 11.18ZM14.0459 11V0.994999H12.2909V11H14.0459ZM27.7149 11.18C29.7249 11.18 30.9699 10.115 31.7349 8.915L30.2349 8.165C29.7549 8.99 28.7799 9.62 27.7149 9.62C25.7349 9.62 24.2649 8.09 24.2649 6.005C24.2649 3.89 25.7349 2.39 27.7149 2.39C28.7799 2.39 29.7549 3.005 30.2349 3.845L31.7199 3.065C30.9849 1.865 29.7249 0.83 27.7149 0.83C24.7599 0.83 22.4649 2.915 22.4649 6.005C22.4649 9.08 24.7599 11.18 27.7149 11.18ZM37.7945 11.18C40.1045 11.18 41.5145 9.44 41.5145 7.37C41.5145 5.285 40.1045 3.575 37.7945 3.575C35.4845 3.575 34.0745 5.285 34.0745 7.37C34.0745 9.44 35.4845 11.18 37.7945 11.18ZM37.7945 9.785C36.4595 9.785 35.7095 8.66 35.7095 7.37C35.7095 6.095 36.4595 4.97 37.7945 4.97C39.1445 4.97 39.8795 6.095 39.8795 7.37C39.8795 8.66 39.1445 9.785 37.7945 9.785ZM55.0228 11V5.765C55.0228 4.295 54.2578 3.575 52.9378 3.575C51.8428 3.575 50.8828 4.25 50.4778 4.895C50.2378 4.115 49.5778 3.575 48.4978 3.575C47.3878 3.575 46.4428 4.295 46.1278 4.73V3.755H44.5528V11H46.1278V5.93C46.4578 5.465 47.1028 4.97 47.8078 4.97C48.6628 4.97 48.9928 5.495 48.9928 6.275V11H50.5678V5.93C50.8828 5.45 51.5428 4.97 52.2478 4.97C53.1028 4.97 53.4478 5.495 53.4478 6.275V11H55.0228ZM62.3926 11.18C64.2676 11.18 65.6026 9.755 65.6026 7.37C65.6026 4.985 64.2676 3.575 62.3926 3.575C61.4476 3.575 60.6076 4.025 60.0676 4.745V3.755H58.4926V13.76H60.0676V9.995C60.6676 10.76 61.4776 11.18 62.3926 11.18ZM61.9276 9.785C61.1926 9.785 60.4126 9.335 60.0676 8.795V5.93C60.4276 5.39 61.1926 4.97 61.9276 4.97C63.1726 4.97 63.9826 5.96 63.9826 7.37C63.9826 8.78 63.1726 9.785 61.9276 9.785ZM71.8941 11.18C74.2041 11.18 75.6141 9.44 75.6141 7.37C75.6141 5.285 74.2041 3.575 71.8941 3.575C69.5841 3.575 68.1741 5.285 68.1741 7.37C68.1741 9.44 69.5841 11.18 71.8941 11.18ZM71.8941 9.785C70.5591 9.785 69.8091 8.66 69.8091 7.37C69.8091 6.095 70.5591 4.97 71.8941 4.97C73.2441 4.97 73.9791 6.095 73.9791 7.37C73.9791 8.66 73.2441 9.785 71.8941 9.785ZM85.1324 11V5.9C85.1324 4.415 84.3524 3.575 82.7924 3.575C81.6524 3.575 80.7074 4.16 80.2274 4.73V3.755H78.6524V11H80.2274V5.93C80.6024 5.45 81.2924 4.97 82.0874 4.97C82.9724 4.97 83.5574 5.33 83.5574 6.47V11H85.1324ZM91.9678 11.18C93.1078 11.18 94.1728 10.805 94.9078 10.115L94.1878 9.08C93.6628 9.605 92.8378 9.89 92.1178 9.89C90.7528 9.89 89.9428 8.975 89.8228 7.895H95.4028V7.505C95.4028 5.225 94.0228 3.575 91.8478 3.575C89.7028 3.575 88.1728 5.27 88.1728 7.37C88.1728 9.665 89.7778 11.18 91.9678 11.18ZM93.8878 6.77H89.8078C89.8678 5.9 90.4978 4.865 91.8328 4.865C93.2578 4.865 93.8428 5.915 93.8878 6.77ZM104.867 11V5.9C104.867 4.415 104.087 3.575 102.527 3.575C101.387 3.575 100.442 4.16 99.9624 4.73V3.755H98.3874V11H99.9624V5.93C100.337 5.45 101.027 4.97 101.822 4.97C102.707 4.97 103.292 5.33 103.292 6.47V11H104.867ZM110.533 11.18C111.253 11.18 111.718 10.97 112.003 10.715L111.628 9.515C111.508 9.65 111.238 9.785 110.938 9.785C110.488 9.785 110.248 9.41 110.248 8.915V5.12H111.718V3.755H110.248V1.775H108.673V3.755H107.473V5.12H108.673V9.305C108.673 10.52 109.303 11.18 110.533 11.18ZM117.053 11.18C119.003 11.18 120.068 10.205 120.068 8.915C120.068 6.035 115.688 6.995 115.688 5.72C115.688 5.21 116.198 4.82 117.023 4.82C117.938 4.82 118.733 5.21 119.168 5.69L119.828 4.58C119.183 4.01 118.253 3.575 117.023 3.575C115.193 3.575 114.173 4.58 114.173 5.765C114.173 8.555 118.553 7.535 118.553 8.96C118.553 9.53 118.058 9.92 117.113 9.92C116.183 9.92 115.178 9.44 114.668 8.915L113.948 10.04C114.698 10.775 115.808 11.18 117.053 11.18Z" fill="#FF9937"/>
</svg>
